G04*
G04 #@! TF.GenerationSoftware,Altium Limited,Altium Designer,20.2.6 (244)*
G04*
G04 Layer_Color=16711935*
%FSLAX25Y25*%
%MOIN*%
G70*
G04*
G04 #@! TF.SameCoordinates,29AB004D-2CC8-4C0B-A097-626F2230A58D*
G04*
G04*
G04 #@! TF.FilePolarity,Negative*
G04*
G01*
G75*
%ADD15C,0.06706*%
%ADD16R,0.06706X0.06706*%
%ADD17R,0.05524X0.10642*%
%ADD18O,0.05524X0.10642*%
%ADD19C,0.06102*%
%ADD20R,0.06102X0.06102*%
G04:AMPARAMS|DCode=21|XSize=94.49mil|YSize=196.85mil|CornerRadius=47.24mil|HoleSize=0mil|Usage=FLASHONLY|Rotation=180.000|XOffset=0mil|YOffset=0mil|HoleType=Round|Shape=RoundedRectangle|*
%AMROUNDEDRECTD21*
21,1,0.09449,0.10236,0,0,180.0*
21,1,0.00000,0.19685,0,0,180.0*
1,1,0.09449,0.00000,0.05118*
1,1,0.09449,0.00000,0.05118*
1,1,0.09449,0.00000,-0.05118*
1,1,0.09449,0.00000,-0.05118*
%
%ADD21ROUNDEDRECTD21*%
%ADD22C,0.10748*%
%ADD23R,0.06706X0.06706*%
D15*
X59055Y106299D02*
D03*
X69055D02*
D03*
X79055D02*
D03*
X213583Y14764D02*
D03*
Y40354D02*
D03*
X195866D02*
D03*
D16*
X89055Y106299D02*
D03*
D17*
X108600Y31900D02*
D03*
X37402Y35433D02*
D03*
D18*
X98757Y31900D02*
D03*
X76772Y35433D02*
D03*
X66929D02*
D03*
X57087D02*
D03*
X47244D02*
D03*
D19*
X214567Y59055D02*
D03*
X194882D02*
D03*
Y116142D02*
D03*
X204724D02*
D03*
D20*
X214567D02*
D03*
D21*
X227165Y86614D02*
D03*
X182283D02*
D03*
D22*
X11811Y124016D02*
D03*
X240157D02*
D03*
Y17717D02*
D03*
X11811D02*
D03*
D23*
X195866Y14764D02*
D03*
M02*
