G04*
G04 #@! TF.GenerationSoftware,Altium Limited,Altium Designer,20.2.6 (244)*
G04*
G04 Layer_Physical_Order=2*
G04 Layer_Color=16711680*
%FSLAX25Y25*%
%MOIN*%
G70*
G04*
G04 #@! TF.SameCoordinates,29AB004D-2CC8-4C0B-A097-626F2230A58D*
G04*
G04*
G04 #@! TF.FilePolarity,Positive*
G04*
G01*
G75*
%ADD19C,0.06102*%
%ADD20R,0.06102X0.06102*%
G04:AMPARAMS|DCode=21|XSize=94.49mil|YSize=196.85mil|CornerRadius=47.24mil|HoleSize=0mil|Usage=FLASHONLY|Rotation=180.000|XOffset=0mil|YOffset=0mil|HoleType=Round|Shape=RoundedRectangle|*
%AMROUNDEDRECTD21*
21,1,0.09449,0.10236,0,0,180.0*
21,1,0.00000,0.19685,0,0,180.0*
1,1,0.09449,0.00000,0.05118*
1,1,0.09449,0.00000,0.05118*
1,1,0.09449,0.00000,-0.05118*
1,1,0.09449,0.00000,-0.05118*
%
%ADD21ROUNDEDRECTD21*%
%ADD22C,0.10748*%
%ADD24C,0.03937*%
%ADD25C,0.05906*%
%ADD26R,0.05906X0.05906*%
%ADD27R,0.04724X0.09843*%
%ADD28O,0.04724X0.09843*%
%ADD29R,0.05906X0.05906*%
D19*
X214567Y59055D02*
D03*
X194882D02*
D03*
Y116142D02*
D03*
X204724D02*
D03*
D20*
X214567D02*
D03*
D21*
X227165Y86614D02*
D03*
X182283D02*
D03*
D22*
X11811Y124016D02*
D03*
X240157D02*
D03*
Y17717D02*
D03*
X11811D02*
D03*
D24*
X53599Y106299D02*
X59563D01*
X20800Y73500D02*
X53599Y106299D01*
X204600Y69400D02*
X222394D01*
X194882Y59055D02*
Y59641D01*
X195965Y60724D01*
Y60764D01*
X204600Y69400D01*
X222394D02*
X232200Y59594D01*
X220300Y24100D02*
X232200Y36000D01*
Y59594D01*
X108600Y29341D02*
Y31900D01*
Y29341D02*
X108994Y28947D01*
X116400Y24100D02*
X220300D01*
X111553Y28947D02*
X116400Y24100D01*
X108994Y28947D02*
X111553D01*
X37402Y46802D02*
X51200Y60600D01*
X178200D02*
X214567Y96967D01*
X51200Y60600D02*
X178200D01*
X214567Y96967D02*
Y116142D01*
X20800Y29700D02*
X31900Y18600D01*
X20800Y29700D02*
Y73500D01*
X31900Y18600D02*
X62700D01*
X86893Y47900D02*
X203412D01*
X76772Y37779D02*
X86893Y47900D01*
X76772Y35433D02*
Y37779D01*
X203412Y47900D02*
X214567Y59055D01*
X37402Y35433D02*
Y46802D01*
X66929Y22829D02*
Y35433D01*
X62700Y18600D02*
X66929Y22829D01*
D25*
X59055Y106299D02*
D03*
X69055D02*
D03*
X79055D02*
D03*
X213583Y14764D02*
D03*
Y40354D02*
D03*
X195866D02*
D03*
D26*
X89055Y106299D02*
D03*
D27*
X108600Y31900D02*
D03*
X37402Y35433D02*
D03*
D28*
X98757Y31900D02*
D03*
X76772Y35433D02*
D03*
X66929D02*
D03*
X57087D02*
D03*
X47244D02*
D03*
D29*
X195866Y14764D02*
D03*
M02*
