M48
;Layer_Color=9474304
;FILE_FORMAT=2:5
INCH,LZ
;TYPE=PLATED
T1F00S00C0.03150
T2F00S00C0.03543
T3F00S00C0.03898
T4F00S00C0.03937
T6F00S00C0.07874
%
T01
X0037402Y0035433
X0047244
X0057087
X0066929
X0076772
X0098757Y00319
X01086
T02
X0059055Y0106299
X0069055
X0079055
X0089055
T03
X0195866Y0014764
Y0040354
X0213583
Y0014764
T04
X0214567Y0059055
Y0116142
X0204724
X0194882
Y0059055
T06
X0011811Y0017717
X0240157
Y0124016
X0011811
M30
