G04*
G04 #@! TF.GenerationSoftware,Altium Limited,Altium Designer,20.2.6 (244)*
G04*
G04 Layer_Physical_Order=1*
G04 Layer_Color=255*
%FSLAX25Y25*%
%MOIN*%
G70*
G04*
G04 #@! TF.SameCoordinates,144DF908-3300-4855-B5FD-CD95A974D408*
G04*
G04*
G04 #@! TF.FilePolarity,Positive*
G04*
G01*
G75*
%ADD20R,0.05709X0.05709*%
%ADD21C,0.05709*%
%ADD28C,0.03150*%
%ADD29R,0.09843X0.04724*%
%ADD30O,0.09843X0.04724*%
%ADD31O,0.04724X0.09843*%
%ADD32R,0.04724X0.09843*%
%ADD33C,0.05906*%
%ADD34R,0.05906X0.05906*%
%ADD35C,0.18673*%
%ADD36R,0.05315X0.05315*%
%ADD37C,0.05315*%
%ADD38C,0.03150*%
D20*
X309564Y154035D02*
D03*
D21*
Y173721D02*
D03*
D28*
X212106Y265945D02*
X214567Y268406D01*
X212106Y243085D02*
Y265945D01*
X210261Y241240D02*
X212106Y243085D01*
X198442Y241240D02*
X210261D01*
X169308Y267520D02*
X199409D01*
X205332Y258760D02*
Y261597D01*
X199409Y267520D02*
X205332Y261597D01*
X323917Y143996D02*
Y210630D01*
X296358Y228543D02*
X306004D01*
X323917Y210630D01*
X309055Y233465D02*
X329724Y212795D01*
X296555Y233465D02*
X309055D01*
X329724Y135138D02*
Y212795D01*
X303013Y222774D02*
X316929Y208858D01*
X296003Y222774D02*
X303013D01*
X316929Y149016D02*
Y208858D01*
X309842Y185925D02*
Y207874D01*
X297342Y218406D02*
X299311D01*
X309842Y207874D01*
X302559Y188976D02*
Y208169D01*
X296457Y213425D02*
X297303D01*
X302559Y208169D01*
X224016Y99508D02*
X243012D01*
X164272Y48720D02*
Y69095D01*
X157283Y110039D02*
X157283Y110039D01*
X164272Y69095D02*
X164469Y69291D01*
Y84153D01*
X157283Y110039D02*
X163191D01*
X164469Y84153D02*
X217323Y137008D01*
Y161811D01*
X166634Y100197D02*
X204134Y137697D01*
X157972Y100197D02*
X166634D01*
X195374Y142222D02*
Y160925D01*
X204134Y137697D02*
Y159254D01*
X163191Y110039D02*
X195374Y142222D01*
X101083Y145374D02*
Y191732D01*
X117627Y208276D01*
Y262598D01*
X159466Y286161D02*
X303484D01*
X279626Y99705D02*
X323917Y143996D01*
X277264Y109350D02*
X316929Y149016D01*
X284547Y89961D02*
X329724Y135138D01*
X284547Y47835D02*
Y89961D01*
X204134Y159254D02*
X222143Y177264D01*
X218307Y183858D02*
X283465D01*
X195374Y160925D02*
X218307Y183858D01*
X226772Y171260D02*
X295177D01*
X217323Y161811D02*
X226772Y171260D01*
X222143Y177264D02*
X290846D01*
X302559Y188976D01*
X295177Y171260D02*
X309842Y185925D01*
X156693Y41142D02*
X164272Y48720D01*
X289370Y189764D02*
Y196752D01*
X283465Y183858D02*
X289370Y189764D01*
X277165Y109350D02*
X277264D01*
X277165Y40453D02*
X284547Y47835D01*
X276969Y99705D02*
X279626D01*
X302165Y273425D02*
X312795Y262795D01*
X312992D01*
X165371Y263583D02*
X169308Y267520D01*
X165141Y253970D02*
X171998Y260827D01*
X195588D02*
X202674Y253740D01*
X171998Y260827D02*
X195588D01*
D29*
X262460Y40489D02*
D03*
X68209Y263950D02*
D03*
X114318Y145472D02*
D03*
X89567D02*
D03*
X163819D02*
D03*
X139068Y145472D02*
D03*
X187025Y255709D02*
D03*
X149623Y243970D02*
D03*
X382582Y36904D02*
D03*
X188423Y60174D02*
D03*
X308545Y56589D02*
D03*
X145669Y41142D02*
D03*
X71632Y60827D02*
D03*
D30*
X262460Y50331D02*
D03*
Y60174D02*
D03*
Y70016D02*
D03*
Y79859D02*
D03*
Y89701D02*
D03*
Y99544D02*
D03*
Y109386D02*
D03*
X212067Y40489D02*
D03*
Y50331D02*
D03*
Y60174D02*
D03*
Y70016D02*
D03*
Y79859D02*
D03*
Y89701D02*
D03*
Y99544D02*
D03*
Y109386D02*
D03*
X68209Y273793D02*
D03*
X114318Y155315D02*
D03*
Y165157D02*
D03*
X89567Y155315D02*
D03*
Y165157D02*
D03*
X163819Y155315D02*
D03*
Y165157D02*
D03*
X139068Y155315D02*
D03*
Y165157D02*
D03*
X187025Y206496D02*
D03*
Y216339D02*
D03*
Y226181D02*
D03*
Y236024D02*
D03*
Y245866D02*
D03*
X149623Y273970D02*
D03*
Y263970D02*
D03*
Y253970D02*
D03*
X382582Y46746D02*
D03*
Y56589D02*
D03*
Y66431D02*
D03*
Y76274D02*
D03*
Y86116D02*
D03*
Y95959D02*
D03*
Y105801D02*
D03*
X332188Y36904D02*
D03*
Y46746D02*
D03*
Y56589D02*
D03*
Y66431D02*
D03*
Y76274D02*
D03*
Y86116D02*
D03*
Y95959D02*
D03*
Y105801D02*
D03*
X188423Y90174D02*
D03*
Y80174D02*
D03*
Y70174D02*
D03*
X308545Y86589D02*
D03*
Y76588D02*
D03*
Y66588D02*
D03*
X145669Y50984D02*
D03*
Y60827D02*
D03*
Y70669D02*
D03*
Y80512D02*
D03*
Y90354D02*
D03*
Y100197D02*
D03*
Y110039D02*
D03*
X95276Y41142D02*
D03*
Y50984D02*
D03*
Y60827D02*
D03*
Y70669D02*
D03*
Y80512D02*
D03*
Y90354D02*
D03*
Y100197D02*
D03*
Y110039D02*
D03*
X71632Y70827D02*
D03*
Y80827D02*
D03*
Y90827D02*
D03*
D31*
X227264Y147835D02*
D03*
X237106D02*
D03*
X246949D02*
D03*
X256791D02*
D03*
X96457Y299016D02*
D03*
X159466Y298130D02*
D03*
X169466D02*
D03*
X179466D02*
D03*
D32*
X266634Y147835D02*
D03*
X86614Y299016D02*
D03*
X149466Y298130D02*
D03*
D33*
X211516Y158563D02*
D03*
Y140847D02*
D03*
X185925D02*
D03*
X343504Y252756D02*
D03*
Y235039D02*
D03*
X317913D02*
D03*
D34*
X185925Y158563D02*
D03*
X317913Y252756D02*
D03*
D35*
X35433Y203740D02*
D03*
X23622Y222244D02*
D03*
X47244D02*
D03*
X385827Y295079D02*
D03*
X17717Y299016D02*
D03*
X220472Y19488D02*
D03*
D36*
X348425Y13583D02*
D03*
X236221Y19488D02*
D03*
X111002Y18504D02*
D03*
D37*
X368110Y13583D02*
D03*
X255906Y19488D02*
D03*
X130687Y18504D02*
D03*
D38*
X214567Y268406D02*
D03*
X243012Y99508D02*
D03*
X224016D02*
D03*
X277165Y109350D02*
D03*
X157283Y110039D02*
D03*
X101083Y145374D02*
D03*
X117627Y262598D02*
D03*
X303484Y286161D02*
D03*
X159466D02*
D03*
X157972Y100197D02*
D03*
X289370Y196752D02*
D03*
X297342Y218406D02*
D03*
X277165Y40453D02*
D03*
Y99508D02*
D03*
X296457Y213425D02*
D03*
X296003Y222774D02*
D03*
X296358Y228543D02*
D03*
X296555Y233465D02*
D03*
X156693Y41142D02*
D03*
X312992Y262795D02*
D03*
X302165Y273425D02*
D03*
X202674Y253740D02*
D03*
X165371Y263583D02*
D03*
X198442Y241240D02*
D03*
X205332Y258760D02*
D03*
X165141Y253970D02*
D03*
M02*
