M48
;Layer_Color=9474304
;FILE_FORMAT=2:5
INCH,LZ
;TYPE=PLATED
T1F00S00C0.01968
T2F00S00C0.03150
T3F00S00C0.03740
T4F00S00C0.03898
T5F00S00C0.12450
T6F00S00C0.12598
%
T01
X0156693Y0041142
X0157972Y0100197
X0224016Y0099508
X0243012
X0277165
Y0040453
Y010935
X028937Y0196752
X0296457Y0213425
X0297342Y0218406
X0296003Y0222774
X0296358Y0228543
X0296555Y0233465
X0198442Y024124
X0202674Y025374
X0205332Y025876
X0165141Y025397
X0157283Y0110039
X0101083Y0145374
X0117627Y0262598
X0165371Y0263583
X0159466Y0286161
X0214567Y0268406
X0302165Y0273425
X0303484Y0286161
X0312992Y0262795
T02
X0111002Y0018504
X0095276Y0041142
Y0050984
Y0060827
Y0070669
Y0080512
Y0090354
Y0100197
X0071632Y0090827
Y0080827
Y0070827
Y0060827
X0145669
Y0050984
Y0041142
Y0070669
Y0080512
Y0090354
Y0100197
X0188423Y0090174
Y0080174
Y0070174
Y0060174
X0212067
Y0050331
Y0040489
Y0070016
Y0079859
Y0089701
Y0099544
X026246
Y0089701
Y0079859
Y0070016
Y0060174
Y0050331
Y0040489
X0255906Y0019488
X0236221Y0019488
X0130687Y0018504
X0308545Y0056589
Y0066588
Y0076588
Y0086589
X0332188Y0086116
Y0076274
Y0066431
Y0056589
Y0046746
Y0036904
X0348425Y0013583
X036811Y0013583
X0382582Y0036904
Y0046746
Y0056589
Y0066431
Y0076274
Y0086116
Y0095959
X0332188
Y0105801
X0382582
X026246Y0109386
X0266634Y0147835
X0256791
X0246949
X0237106
X0227264
X0212067Y0109386
X0145669Y0110039
X0139068Y0145472
Y0155315
Y0165157
X0114318Y0165157
Y0155315
Y0145472
X0163819
Y0155315
Y0165157
X0187025Y0206496
Y0216339
Y0226181
Y0236024
Y0245866
Y0255709
X0149623Y025397
Y024397
X0089567Y0165157
Y0155315
Y0145472
X0095276Y0110039
X0068209Y026395
Y0273793
X0086614Y0299016
X0096457
X0149466Y029813
X0159466
X0169466
X0179466
X0149623Y027397
Y026397
T03
X0309564Y0154035
Y0173721
T04
X0317913Y0235039
Y0252756
X0343504
Y0235039
X0211516Y0158563
Y0140847
X0185925
Y0158563
T05
X0035433Y020374
X0023622Y0222244
X0047244
T06
X0220472Y0019488
X0017717Y0299016
X0385827Y0295079
M30
