G04*
G04 #@! TF.GenerationSoftware,Altium Limited,Altium Designer,20.2.6 (244)*
G04*
G04 Layer_Color=16711935*
%FSLAX25Y25*%
%MOIN*%
G70*
G04*
G04 #@! TF.SameCoordinates,641EFE85-6A15-4261-AD37-7AE5EDCB2416*
G04*
G04*
G04 #@! TF.FilePolarity,Positive*
G04*
G01*
G75*
%ADD48C,0.00600*%
%ADD49C,0.00787*%
%ADD50C,0.00394*%
D48*
X250769Y103555D02*
G03*
X250769Y103555I-984J0D01*
G01*
X272702Y106210D02*
G03*
X287300Y106216I7299J-96D01*
G01*
X250769Y190169D02*
G03*
X250769Y190169I-984J0D01*
G01*
X272702Y192824D02*
G03*
X287300Y192830I7299J-96D01*
G01*
X250769Y276783D02*
G03*
X250769Y276783I-984J0D01*
G01*
X272702Y279439D02*
G03*
X287300Y279444I7299J-96D01*
G01*
X24330Y34624D02*
Y83049D01*
X5629Y34132D02*
X27972Y34132D01*
X5629Y34132D02*
Y83147D01*
X27972Y34132D02*
Y83147D01*
X5629D02*
X27972D01*
X338942Y40051D02*
Y88476D01*
X320241Y39559D02*
X342584D01*
X320241D02*
Y88575D01*
X342584Y39559D02*
Y88575D01*
X320241D02*
X342584D01*
X338942Y213280D02*
Y261705D01*
X320241Y212787D02*
X342584D01*
X320241D02*
Y261803D01*
X342584Y212787D02*
Y261803D01*
X320241D02*
X342584D01*
X338942Y126665D02*
Y175091D01*
X320241Y126173D02*
X342584D01*
X320241D02*
Y175189D01*
X342584Y126173D02*
Y175189D01*
X320241D02*
X342584D01*
X5535Y150523D02*
X28370Y150523D01*
Y101606D02*
Y150523D01*
X5535Y101606D02*
Y150523D01*
Y101606D02*
X28370D01*
X24827Y101803D02*
Y150326D01*
X8410Y255069D02*
X37938Y255069D01*
X37839Y250542D02*
Y273376D01*
X8410Y250542D02*
X37839D01*
X8410D02*
Y273376D01*
X37839D01*
X8410Y240676D02*
X37839D01*
X8410Y217842D02*
Y240676D01*
Y217842D02*
X37839D01*
Y240676D01*
X8410Y222369D02*
X37938Y222369D01*
X72818Y145893D02*
X111991D01*
X111991Y169042D02*
X111991Y145893D01*
X72818D02*
Y169042D01*
X111991D01*
X72720Y149042D02*
X111794D01*
X62976Y174343D02*
X102149D01*
X102149Y197493D02*
X102149Y174343D01*
X62976D02*
Y197493D01*
X102149D01*
X62877Y177493D02*
X101952D01*
X124903Y145643D02*
X164076D01*
X164076Y168793D02*
X164076Y145643D01*
X124903D02*
Y168793D01*
X164076D01*
X124805Y148793D02*
X163880D01*
X115061Y174343D02*
X154234D01*
X154234Y197493D02*
X154234Y174343D01*
X115061D02*
Y197493D01*
X154234D01*
X114962Y177493D02*
X154037D01*
D49*
X247127Y22158D02*
Y106114D01*
Y22158D02*
X315237D01*
Y106114D01*
X247127Y106114D02*
X315237Y106114D01*
X247127Y108772D02*
Y192728D01*
Y108772D02*
X315237D01*
Y192728D01*
X247127Y192728D02*
X315237Y192728D01*
X247127Y195386D02*
Y279343D01*
Y195386D02*
X315237D01*
Y279343D01*
X247127Y279343D02*
X315237Y279343D01*
D50*
X52604Y150753D02*
X52604Y82151D01*
X29966Y150753D02*
X52604D01*
X29966Y82151D02*
X29966Y150753D01*
X29966Y82151D02*
X52604D01*
X32651Y82163D02*
Y150766D01*
X135278Y235368D02*
Y236943D01*
X134491Y236155D02*
X136065D01*
M02*
