G04*
G04 #@! TF.GenerationSoftware,Altium Limited,Altium Designer,20.2.6 (244)*
G04*
G04 Layer_Color=65535*
%FSLAX25Y25*%
%MOIN*%
G70*
G04*
G04 #@! TF.SameCoordinates,144DF908-3300-4855-B5FD-CD95A974D408*
G04*
G04*
G04 #@! TF.FilePolarity,Positive*
G04*
G01*
G75*
%ADD10C,0.00600*%
%ADD11C,0.00591*%
%ADD12C,0.00984*%
%ADD13C,0.00787*%
%ADD14C,0.00394*%
%ADD15C,0.01000*%
D10*
X245547Y32519D02*
G03*
X230948Y32513I-7299J96D01*
G01*
X269448Y35174D02*
G03*
X269448Y35174I-984J0D01*
G01*
X365669Y28933D02*
G03*
X351070Y28928I-7299J96D01*
G01*
X389570Y31589D02*
G03*
X389570Y31589I-984J0D01*
G01*
X128756Y33172D02*
G03*
X114157Y33166I-7299J96D01*
G01*
X152657Y35827D02*
G03*
X152657Y35827I-984J0D01*
G01*
X63976Y253714D02*
X63976Y283242D01*
X59449Y253812D02*
X82284D01*
X59449D02*
Y283242D01*
X82284D01*
Y253812D02*
Y283242D01*
X108510Y136319D02*
Y175394D01*
X128510Y136122D02*
Y175295D01*
X105361D02*
X128510D01*
X105361Y136122D02*
X128510D01*
X105361D02*
Y175295D01*
X83760Y136319D02*
Y175394D01*
X103760Y136122D02*
Y175295D01*
X80610D02*
X103760D01*
X80610Y136122D02*
X103760D01*
X80610D02*
Y175295D01*
X76378Y303248D02*
X105905Y303248D01*
X76476Y284941D02*
Y307776D01*
X105905D01*
Y284941D02*
Y307776D01*
X76476Y284941D02*
X105905D01*
X158012Y136319D02*
Y175394D01*
X178012Y136122D02*
Y175295D01*
X154862D02*
X178012D01*
X154862Y136122D02*
X178012D01*
X154862D02*
Y175295D01*
X133261Y136319D02*
Y175394D01*
X153261Y136122D02*
Y175295D01*
X130111D02*
X153261D01*
X130111Y136122D02*
X153261D01*
X130111D02*
Y175295D01*
X139820Y285433D02*
Y307776D01*
X188836D01*
X139820Y285433D02*
X188836D01*
Y307776D01*
X139918Y304134D02*
X188344D01*
X143127Y234915D02*
Y283438D01*
X139584Y283635D02*
X162418D01*
Y234718D02*
Y283635D01*
X139584Y234718D02*
Y283635D01*
Y234718D02*
X162418D01*
X182419Y50626D02*
Y99052D01*
X178777Y99544D02*
X201120D01*
Y50528D02*
Y99544D01*
X178777Y50528D02*
Y99544D01*
Y50528D02*
X201120D01*
X302541Y47041D02*
Y95467D01*
X298899Y95959D02*
X321241D01*
Y46943D02*
Y95959D01*
X298899Y46943D02*
Y95959D01*
Y46943D02*
X321241D01*
X61986Y51181D02*
X84329D01*
X61986D02*
Y100197D01*
X84329Y51181D02*
Y100197D01*
X61986D02*
X84329D01*
X65628Y51279D02*
Y99705D01*
X278584Y38351D02*
X281250D01*
Y42349D01*
X278584D01*
X281250Y40350D02*
X279917D01*
X277251Y42349D02*
Y38351D01*
X274585Y42349D01*
Y38351D01*
X398706Y34765D02*
X401372D01*
Y38764D01*
X398706D01*
X401372Y36765D02*
X400039D01*
X397373Y38764D02*
Y34765D01*
X394707Y38764D01*
Y34765D01*
X161793Y39004D02*
X164459D01*
Y43002D01*
X161793D01*
X164459Y41003D02*
X163126D01*
X160460Y43002D02*
Y39004D01*
X157794Y43002D01*
Y39004D01*
D11*
X341060Y163878D02*
G03*
X341060Y163878I-31496J0D01*
G01*
D12*
X181299Y158563D02*
G03*
X181299Y158563I-492J0D01*
G01*
X313287Y252756D02*
G03*
X313287Y252756I-492J0D01*
G01*
D13*
X351628Y9350D02*
G03*
X365429Y10308I6640J4232D01*
G01*
Y16857D02*
G03*
X351628Y17815I-7161J-3274D01*
G01*
X239423Y15256D02*
G03*
X253224Y16214I6640J4232D01*
G01*
Y22762D02*
G03*
X239423Y23720I-7161J-3274D01*
G01*
X128006Y21778D02*
G03*
X114205Y22736I-7161J-3274D01*
G01*
Y14272D02*
G03*
X128006Y15230I6640J4232D01*
G01*
X203011Y32615D02*
X271122Y32615D01*
X203011Y32615D02*
Y116571D01*
X271122D01*
Y32615D02*
Y116571D01*
X289485Y187500D02*
X329643D01*
X186929Y145260D02*
Y154150D01*
X210512Y145374D02*
Y154150D01*
X190437Y161496D02*
X206988D01*
X190437Y137913D02*
X206988D01*
X318917Y239453D02*
Y248342D01*
X342500Y239567D02*
Y248342D01*
X322425Y255689D02*
X338976D01*
X322425Y232106D02*
X338976D01*
X323133Y29030D02*
X391243Y29030D01*
X323133Y29030D02*
Y112986D01*
X391243D01*
Y29030D02*
Y112986D01*
X86221Y33268D02*
X154331Y33268D01*
X86221Y33268D02*
Y117224D01*
X154331D01*
Y33268D02*
Y117224D01*
D14*
X217618Y160827D02*
X276083D01*
X217421Y160630D02*
X217618Y160827D01*
X217421Y138287D02*
Y160630D01*
X276083Y138091D02*
Y160827D01*
X217224Y141043D02*
X275984D01*
X217421Y138091D02*
X276083D01*
X217421D02*
Y138287D01*
X217520Y160827D02*
X275984D01*
X217323Y160630D02*
X217520Y160827D01*
X217323Y138287D02*
Y160630D01*
X275984Y138091D02*
Y160827D01*
X217126Y141043D02*
X275886D01*
X217323Y138091D02*
X275984D01*
X217323D02*
Y138287D01*
X-6693Y204528D02*
X24803D01*
X-6693D02*
Y239961D01*
X50394D01*
Y232087D02*
Y239961D01*
X46457Y204528D02*
X50394D01*
Y212402D01*
X193592Y196642D02*
Y265244D01*
X173639Y265256D02*
X196277D01*
Y196653D02*
Y265256D01*
X173639Y196653D02*
X196277D01*
X173639D02*
Y265256D01*
D15*
X280763Y92971D02*
X275764D01*
X274765Y91971D01*
Y89972D01*
X275764Y88972D01*
X280763D01*
X274765Y86973D02*
Y84974D01*
Y85973D01*
X280763D01*
X279763Y86973D01*
X273765Y81975D02*
Y77976D01*
X279763Y71978D02*
X280763Y72978D01*
Y74977D01*
X279763Y75977D01*
X278763D01*
X277764Y74977D01*
Y72978D01*
X276764Y71978D01*
X275764D01*
X274765Y72978D01*
Y74977D01*
X275764Y75977D01*
X274765Y69978D02*
X280763D01*
X278763Y67979D01*
X280763Y65980D01*
X274765D01*
Y59982D02*
Y63980D01*
X278763Y59982D01*
X279763D01*
X280763Y60981D01*
Y62981D01*
X279763Y63980D01*
X223410Y132920D02*
X221410D01*
X222410D01*
Y127922D01*
X221410Y126922D01*
X220411D01*
X219411Y127922D01*
X225409Y131921D02*
X226409Y132920D01*
X228408D01*
X229408Y131921D01*
Y130921D01*
X228408Y129921D01*
X229408Y128922D01*
Y127922D01*
X228408Y126922D01*
X226409D01*
X225409Y127922D01*
Y128922D01*
X226409Y129921D01*
X225409Y130921D01*
Y131921D01*
X226409Y129921D02*
X228408D01*
X284341Y164416D02*
Y158418D01*
X288340D01*
X294338Y163417D02*
X293338Y164416D01*
X291339D01*
X290339Y163417D01*
Y162417D01*
X291339Y161417D01*
X293338D01*
X294338Y160418D01*
Y159418D01*
X293338Y158418D01*
X291339D01*
X290339Y159418D01*
X296337Y158418D02*
X298336D01*
X297337D01*
Y164416D01*
X296337Y163417D01*
X188915Y167354D02*
X187915Y168353D01*
X185916D01*
X184916Y167354D01*
Y166354D01*
X185916Y165354D01*
X187915D01*
X188915Y164355D01*
Y163355D01*
X187915Y162355D01*
X185916D01*
X184916Y163355D01*
X190914Y168353D02*
Y162355D01*
X192913Y164355D01*
X194913Y162355D01*
Y168353D01*
X200911Y162355D02*
X196912D01*
X200911Y166354D01*
Y167354D01*
X199911Y168353D01*
X197912D01*
X196912Y167354D01*
X339521Y261842D02*
X338521Y262842D01*
X336522D01*
X335522Y261842D01*
Y260842D01*
X336522Y259842D01*
X338521D01*
X339521Y258843D01*
Y257843D01*
X338521Y256843D01*
X336522D01*
X335522Y257843D01*
X341520Y262842D02*
Y256843D01*
X343519Y258843D01*
X345519Y256843D01*
Y262842D01*
X347518Y256843D02*
X349517D01*
X348518D01*
Y262842D01*
X347518Y261842D01*
X12249Y188038D02*
X10250D01*
X11249D01*
Y183040D01*
X10250Y182040D01*
X9250D01*
X8251Y183040D01*
X14248Y182040D02*
X16248D01*
X15248D01*
Y188038D01*
X14248Y187039D01*
X23246Y182040D02*
X19247D01*
X23246Y186039D01*
Y187039D01*
X22246Y188038D01*
X20247D01*
X19247Y187039D01*
X59993Y241595D02*
Y239596D01*
Y240596D01*
X64991D01*
X65991Y239596D01*
Y238596D01*
X64991Y237597D01*
X65991Y243595D02*
Y245594D01*
Y244594D01*
X59993D01*
X60993Y243595D01*
X65991Y248593D02*
Y250592D01*
Y249593D01*
X59993D01*
X60993Y248593D01*
X110674Y132920D02*
X108675D01*
X109675D01*
Y127922D01*
X108675Y126922D01*
X107675D01*
X106676Y127922D01*
X112674Y126922D02*
X114673D01*
X113673D01*
Y132920D01*
X112674Y131921D01*
X117672D02*
X118672Y132920D01*
X120671D01*
X121671Y131921D01*
Y127922D01*
X120671Y126922D01*
X118672D01*
X117672Y127922D01*
Y131921D01*
X85615Y132920D02*
X83615D01*
X84615D01*
Y127922D01*
X83615Y126922D01*
X82616D01*
X81616Y127922D01*
X87614D02*
X88613Y126922D01*
X90613D01*
X91613Y127922D01*
Y131921D01*
X90613Y132920D01*
X88613D01*
X87614Y131921D01*
Y130921D01*
X88613Y129921D01*
X91613D01*
X65930Y306149D02*
X63930D01*
X64930D01*
Y301150D01*
X63930Y300151D01*
X62930D01*
X61931Y301150D01*
X67929Y306149D02*
X71927D01*
Y305149D01*
X67929Y301150D01*
Y300151D01*
X160418Y132920D02*
X158418D01*
X159418D01*
Y127922D01*
X158418Y126922D01*
X157419D01*
X156419Y127922D01*
X166416Y132920D02*
X164416Y131921D01*
X162417Y129921D01*
Y127922D01*
X163417Y126922D01*
X165416D01*
X166416Y127922D01*
Y128922D01*
X165416Y129921D01*
X162417D01*
X136796Y132920D02*
X134796D01*
X135796D01*
Y127922D01*
X134796Y126922D01*
X133797D01*
X132797Y127922D01*
X142794Y132920D02*
X138795D01*
Y129921D01*
X140794Y130921D01*
X141794D01*
X142794Y129921D01*
Y127922D01*
X141794Y126922D01*
X139795D01*
X138795Y127922D01*
X132859Y294338D02*
X130859D01*
X131859D01*
Y289339D01*
X130859Y288340D01*
X129860D01*
X128860Y289339D01*
X137857Y288340D02*
Y294338D01*
X134858Y291339D01*
X138857D01*
X191975Y276590D02*
Y278590D01*
Y277590D01*
X186977D01*
X185977Y278590D01*
Y279589D01*
X186977Y280589D01*
X190976Y274591D02*
X191975Y273591D01*
Y271592D01*
X190976Y270592D01*
X189976D01*
X188976Y271592D01*
Y272591D01*
Y271592D01*
X187977Y270592D01*
X186977D01*
X185977Y271592D01*
Y273591D01*
X186977Y274591D01*
X138733Y223410D02*
Y221410D01*
Y222410D01*
X143732D01*
X144731Y221410D01*
Y220411D01*
X143732Y219411D01*
X144731Y229408D02*
Y225409D01*
X140733Y229408D01*
X139733D01*
X138733Y228408D01*
Y226409D01*
X139733Y225409D01*
X400841Y92971D02*
X395843D01*
X394843Y91971D01*
Y89972D01*
X395843Y88972D01*
X400841D01*
X394843Y86973D02*
Y84974D01*
Y85973D01*
X400841D01*
X399842Y86973D01*
X393844Y81975D02*
Y77976D01*
X399842Y71978D02*
X400841Y72978D01*
Y74977D01*
X399842Y75977D01*
X398842D01*
X397842Y74977D01*
Y72978D01*
X396843Y71978D01*
X395843D01*
X394843Y72978D01*
Y74977D01*
X395843Y75977D01*
X394843Y69978D02*
X400841D01*
X398842Y67979D01*
X400841Y65980D01*
X394843D01*
Y63980D02*
Y61981D01*
Y62981D01*
X400841D01*
X399842Y63980D01*
X374330Y22184D02*
X373331Y23184D01*
X371332D01*
X370332Y22184D01*
Y18185D01*
X371332Y17186D01*
X373331D01*
X374330Y18185D01*
X376330Y17186D02*
X378329D01*
X377329D01*
Y23184D01*
X376330Y22184D01*
X381328Y16186D02*
X385327D01*
X391325Y22184D02*
X390325Y23184D01*
X388326D01*
X387326Y22184D01*
Y21185D01*
X388326Y20185D01*
X390325D01*
X391325Y19185D01*
Y18185D01*
X390325Y17186D01*
X388326D01*
X387326Y18185D01*
X393324Y17186D02*
Y23184D01*
X395324Y21185D01*
X397323Y23184D01*
Y17186D01*
X399322D02*
X401322D01*
X400322D01*
Y23184D01*
X399322Y22184D01*
X267032D02*
X266032Y23184D01*
X264033D01*
X263033Y22184D01*
Y18185D01*
X264033Y17186D01*
X266032D01*
X267032Y18185D01*
X269031Y17186D02*
X271030D01*
X270031D01*
Y23184D01*
X269031Y22184D01*
X274029Y16186D02*
X278028D01*
X284026Y22184D02*
X283026Y23184D01*
X281027D01*
X280027Y22184D01*
Y21185D01*
X281027Y20185D01*
X283026D01*
X284026Y19185D01*
Y18185D01*
X283026Y17186D01*
X281027D01*
X280027Y18185D01*
X286026Y17186D02*
Y23184D01*
X288025Y21185D01*
X290024Y23184D01*
Y17186D01*
X296022D02*
X292023D01*
X296022Y21185D01*
Y22184D01*
X295023Y23184D01*
X293023D01*
X292023Y22184D01*
X176392Y90859D02*
Y92858D01*
Y91858D01*
X171394D01*
X170394Y92858D01*
Y93858D01*
X171394Y94857D01*
X170394Y88859D02*
Y86860D01*
Y87860D01*
X176392D01*
X175392Y88859D01*
X169394Y83861D02*
Y79862D01*
X175392Y73864D02*
X176392Y74864D01*
Y76863D01*
X175392Y77863D01*
X174393D01*
X173393Y76863D01*
Y74864D01*
X172393Y73864D01*
X171394D01*
X170394Y74864D01*
Y76863D01*
X171394Y77863D01*
X170394Y71865D02*
X176392D01*
X174393Y69866D01*
X176392Y67866D01*
X170394D01*
Y61868D02*
Y65867D01*
X174393Y61868D01*
X175392D01*
X176392Y62868D01*
Y64867D01*
X175392Y65867D01*
X296514Y90859D02*
Y92858D01*
Y91858D01*
X291515D01*
X290516Y92858D01*
Y93858D01*
X291515Y94857D01*
X290516Y88859D02*
Y86860D01*
Y87860D01*
X296514D01*
X295514Y88859D01*
X289516Y83861D02*
Y79862D01*
X295514Y73864D02*
X296514Y74864D01*
Y76863D01*
X295514Y77863D01*
X294514D01*
X293515Y76863D01*
Y74864D01*
X292515Y73864D01*
X291515D01*
X290516Y74864D01*
Y76863D01*
X291515Y77863D01*
X290516Y71865D02*
X296514D01*
X294514Y69866D01*
X296514Y67866D01*
X290516D01*
Y65867D02*
Y63867D01*
Y64867D01*
X296514D01*
X295514Y65867D01*
X59601Y90859D02*
Y92858D01*
Y91858D01*
X54603D01*
X53603Y92858D01*
Y93858D01*
X54603Y94857D01*
X53603Y88859D02*
Y86860D01*
Y87860D01*
X59601D01*
X58602Y88859D01*
X52604Y83861D02*
Y79862D01*
X58602Y73864D02*
X59601Y74864D01*
Y76863D01*
X58602Y77863D01*
X57602D01*
X56602Y76863D01*
Y74864D01*
X55603Y73864D01*
X54603D01*
X53603Y74864D01*
Y76863D01*
X54603Y77863D01*
X53603Y71865D02*
X59601D01*
X57602Y69866D01*
X59601Y67866D01*
X53603D01*
X58602Y65867D02*
X59601Y64867D01*
Y62868D01*
X58602Y61868D01*
X57602D01*
X56602Y62868D01*
Y63867D01*
Y62868D01*
X55603Y61868D01*
X54603D01*
X53603Y62868D01*
Y64867D01*
X54603Y65867D01*
X140752Y20905D02*
X139752Y21904D01*
X137753D01*
X136753Y20905D01*
Y16906D01*
X137753Y15906D01*
X139752D01*
X140752Y16906D01*
X142751Y15906D02*
X144751D01*
X143751D01*
Y21904D01*
X142751Y20905D01*
X147750Y14907D02*
X151749D01*
X157747Y20905D02*
X156747Y21904D01*
X154748D01*
X153748Y20905D01*
Y19905D01*
X154748Y18905D01*
X156747D01*
X157747Y17906D01*
Y16906D01*
X156747Y15906D01*
X154748D01*
X153748Y16906D01*
X159746Y15906D02*
Y21904D01*
X161745Y19905D01*
X163745Y21904D01*
Y15906D01*
X165744Y20905D02*
X166744Y21904D01*
X168743D01*
X169743Y20905D01*
Y19905D01*
X168743Y18905D01*
X167743D01*
X168743D01*
X169743Y17906D01*
Y16906D01*
X168743Y15906D01*
X166744D01*
X165744Y16906D01*
X163932Y92971D02*
X158934D01*
X157934Y91971D01*
Y89972D01*
X158934Y88972D01*
X163932D01*
X157934Y86973D02*
Y84974D01*
Y85973D01*
X163932D01*
X162932Y86973D01*
X156934Y81975D02*
Y77976D01*
X162932Y71978D02*
X163932Y72978D01*
Y74977D01*
X162932Y75977D01*
X161933D01*
X160933Y74977D01*
Y72978D01*
X159933Y71978D01*
X158934D01*
X157934Y72978D01*
Y74977D01*
X158934Y75977D01*
X157934Y69978D02*
X163932D01*
X161933Y67979D01*
X163932Y65980D01*
X157934D01*
X162932Y63980D02*
X163932Y62981D01*
Y60981D01*
X162932Y59982D01*
X161933D01*
X160933Y60981D01*
Y61981D01*
Y60981D01*
X159933Y59982D01*
X158934D01*
X157934Y60981D01*
Y62981D01*
X158934Y63980D01*
M02*
