G04*
G04 #@! TF.GenerationSoftware,Altium Limited,Altium Designer,20.2.6 (244)*
G04*
G04 Layer_Color=16711935*
%FSLAX25Y25*%
%MOIN*%
G70*
G04*
G04 #@! TF.SameCoordinates,144DF908-3300-4855-B5FD-CD95A974D408*
G04*
G04*
G04 #@! TF.FilePolarity,Negative*
G04*
G01*
G75*
%ADD16R,0.10642X0.05524*%
%ADD17O,0.10642X0.05524*%
%ADD18O,0.05524X0.10642*%
%ADD19R,0.05524X0.10642*%
%ADD20R,0.05709X0.05709*%
%ADD21C,0.05709*%
%ADD22C,0.06706*%
%ADD23R,0.06706X0.06706*%
%ADD24C,0.19473*%
%ADD25R,0.06115X0.06115*%
%ADD26C,0.06115*%
%ADD27C,0.03950*%
%ADD50R,0.06312X0.05524*%
%ADD51R,0.05524X0.06312*%
%ADD52R,0.13398X0.07690*%
%ADD53R,0.04540X0.07690*%
%ADD54R,0.06706X0.10642*%
%ADD55R,0.28359X0.28359*%
%ADD56R,0.08674X0.04343*%
%ADD57R,0.04343X0.08674*%
%ADD58R,0.20485X0.20485*%
%ADD59R,0.06706X0.06706*%
D16*
X262460Y40489D02*
D03*
X68209Y263950D02*
D03*
X114318Y145472D02*
D03*
X89567D02*
D03*
X163819D02*
D03*
X139068Y145472D02*
D03*
X187025Y255709D02*
D03*
X149623Y243970D02*
D03*
X382582Y36904D02*
D03*
X188423Y60174D02*
D03*
X308545Y56589D02*
D03*
X145669Y41142D02*
D03*
X71632Y60827D02*
D03*
D17*
X262460Y50331D02*
D03*
Y60174D02*
D03*
Y70016D02*
D03*
Y79859D02*
D03*
Y89701D02*
D03*
Y99544D02*
D03*
Y109386D02*
D03*
X212067Y40489D02*
D03*
Y50331D02*
D03*
Y60174D02*
D03*
Y70016D02*
D03*
Y79859D02*
D03*
Y89701D02*
D03*
Y99544D02*
D03*
Y109386D02*
D03*
X68209Y273793D02*
D03*
X114318Y155315D02*
D03*
Y165157D02*
D03*
X89567Y155315D02*
D03*
Y165157D02*
D03*
X163819Y155315D02*
D03*
Y165157D02*
D03*
X139068Y155315D02*
D03*
Y165157D02*
D03*
X187025Y206496D02*
D03*
Y216339D02*
D03*
Y226181D02*
D03*
Y236024D02*
D03*
Y245866D02*
D03*
X149623Y273970D02*
D03*
Y263970D02*
D03*
Y253970D02*
D03*
X382582Y46746D02*
D03*
Y56589D02*
D03*
Y66431D02*
D03*
Y76274D02*
D03*
Y86116D02*
D03*
Y95959D02*
D03*
Y105801D02*
D03*
X332188Y36904D02*
D03*
Y46746D02*
D03*
Y56589D02*
D03*
Y66431D02*
D03*
Y76274D02*
D03*
Y86116D02*
D03*
Y95959D02*
D03*
Y105801D02*
D03*
X188423Y90174D02*
D03*
Y80174D02*
D03*
Y70174D02*
D03*
X308545Y86589D02*
D03*
Y76588D02*
D03*
Y66588D02*
D03*
X145669Y50984D02*
D03*
Y60827D02*
D03*
Y70669D02*
D03*
Y80512D02*
D03*
Y90354D02*
D03*
Y100197D02*
D03*
Y110039D02*
D03*
X95276Y41142D02*
D03*
Y50984D02*
D03*
Y60827D02*
D03*
Y70669D02*
D03*
Y80512D02*
D03*
Y90354D02*
D03*
Y100197D02*
D03*
Y110039D02*
D03*
X71632Y70827D02*
D03*
Y80827D02*
D03*
Y90827D02*
D03*
D18*
X227264Y147835D02*
D03*
X237106D02*
D03*
X246949D02*
D03*
X256791D02*
D03*
X96457Y299016D02*
D03*
X159466Y298130D02*
D03*
X169466D02*
D03*
X179466D02*
D03*
D19*
X266634Y147835D02*
D03*
X86614Y299016D02*
D03*
X149466Y298130D02*
D03*
D20*
X309564Y154035D02*
D03*
D21*
Y173721D02*
D03*
D22*
X211516Y158563D02*
D03*
Y140847D02*
D03*
X185925D02*
D03*
X343504Y252756D02*
D03*
Y235039D02*
D03*
X317913D02*
D03*
D23*
X185925Y158563D02*
D03*
X317913Y252756D02*
D03*
D24*
X35433Y203740D02*
D03*
X23622Y222244D02*
D03*
X47244D02*
D03*
X385827Y295079D02*
D03*
X17717Y299016D02*
D03*
X220472Y19488D02*
D03*
D25*
X348425Y13583D02*
D03*
X236221Y19488D02*
D03*
X111002Y18504D02*
D03*
D26*
X368110Y13583D02*
D03*
X255906Y19488D02*
D03*
X130687Y18504D02*
D03*
D27*
X214567Y268406D02*
D03*
X243012Y99508D02*
D03*
X224016D02*
D03*
X277165Y109350D02*
D03*
X157283Y110039D02*
D03*
X101083Y145374D02*
D03*
X117627Y262598D02*
D03*
X303484Y286161D02*
D03*
X159466D02*
D03*
X157972Y100197D02*
D03*
X289370Y196752D02*
D03*
X297342Y218406D02*
D03*
X277165Y40453D02*
D03*
Y99508D02*
D03*
X296457Y213425D02*
D03*
X296003Y222774D02*
D03*
X296358Y228543D02*
D03*
X296555Y233465D02*
D03*
X156693Y41142D02*
D03*
X312992Y262795D02*
D03*
X302165Y273425D02*
D03*
X202674Y253740D02*
D03*
X165371Y263583D02*
D03*
X198442Y241240D02*
D03*
X205332Y258760D02*
D03*
X165141Y253970D02*
D03*
D50*
X133875Y256496D02*
D03*
Y263583D02*
D03*
X124016Y235236D02*
D03*
Y228150D02*
D03*
X354331Y277756D02*
D03*
Y284842D02*
D03*
X366142Y277756D02*
D03*
Y284842D02*
D03*
D51*
X330315Y265551D02*
D03*
X323228D02*
D03*
X351969Y244488D02*
D03*
X359055D02*
D03*
X104151Y262598D02*
D03*
X111237D02*
D03*
X96063Y262598D02*
D03*
X88976D02*
D03*
X353150Y262188D02*
D03*
X360236D02*
D03*
D52*
X321457Y301204D02*
D03*
D53*
X312402Y276401D02*
D03*
X321457D02*
D03*
X330512D02*
D03*
D54*
X91339Y250243D02*
D03*
X109449D02*
D03*
D55*
X100394Y225637D02*
D03*
D56*
X289387Y273425D02*
D03*
Y268425D02*
D03*
Y263425D02*
D03*
Y258425D02*
D03*
Y253425D02*
D03*
Y248425D02*
D03*
Y243425D02*
D03*
Y238425D02*
D03*
Y233425D02*
D03*
Y228425D02*
D03*
Y223425D02*
D03*
Y218425D02*
D03*
Y213425D02*
D03*
Y208425D02*
D03*
X222458D02*
D03*
Y213425D02*
D03*
Y218425D02*
D03*
Y223425D02*
D03*
Y228425D02*
D03*
Y233425D02*
D03*
Y238425D02*
D03*
Y243425D02*
D03*
Y248425D02*
D03*
Y253425D02*
D03*
Y258425D02*
D03*
Y263425D02*
D03*
Y268425D02*
D03*
Y273425D02*
D03*
D57*
X278422Y204488D02*
D03*
X273422D02*
D03*
X268422D02*
D03*
X263422D02*
D03*
X258422D02*
D03*
X253422D02*
D03*
X248422D02*
D03*
X243422D02*
D03*
X238422D02*
D03*
X233422D02*
D03*
D58*
X259859Y243898D02*
D03*
D59*
X124016Y262598D02*
D03*
Y248819D02*
D03*
M02*
