G04*
G04 #@! TF.GenerationSoftware,Altium Limited,Altium Designer,20.2.6 (244)*
G04*
G04 Layer_Color=32896*
%FSLAX25Y25*%
%MOIN*%
G70*
G04*
G04 #@! TF.SameCoordinates,144DF908-3300-4855-B5FD-CD95A974D408*
G04*
G04*
G04 #@! TF.FilePolarity,Positive*
G04*
G01*
G75*
%ADD13C,0.00787*%
%ADD14C,0.00394*%
%ADD15C,0.01000*%
D13*
X91736Y256916D02*
G03*
X91736Y256916I-350J0D01*
G01*
X295686Y273189D02*
G03*
X295686Y273976I0J394D01*
G01*
D02*
G03*
X295686Y273189I0J-394D01*
G01*
X131513Y260039D02*
X136237D01*
X326772Y263189D02*
Y267913D01*
X333760Y272956D02*
Y279846D01*
X308661Y281913D02*
X334252D01*
X308661D02*
Y295692D01*
X334252D01*
Y281913D02*
Y295692D01*
X87598Y240991D02*
X113189D01*
X121653Y231693D02*
X126378D01*
X355512Y242126D02*
Y246850D01*
X119488Y245079D02*
Y251772D01*
X126969Y243110D02*
X128543Y245079D01*
X119488D02*
X121063Y243110D01*
X128543Y245079D02*
Y251772D01*
X121063Y243110D02*
X126969D01*
X119488Y267126D02*
X128543D01*
X119488Y259646D02*
Y267126D01*
X128543Y259646D02*
Y267126D01*
X107694Y260236D02*
Y264961D01*
X92520Y260236D02*
Y264961D01*
X351969Y281299D02*
X356693D01*
X363779D02*
X368504D01*
X356693Y259826D02*
Y264550D01*
D14*
X291355Y202520D02*
Y204488D01*
X283481Y202520D02*
X291355D01*
X220489D02*
X228363D01*
X220489D02*
Y204488D01*
X291355Y278307D02*
Y302913D01*
X220489D02*
X291355D01*
X220489Y278307D02*
Y302913D01*
D15*
X143732Y258843D02*
X144731Y257843D01*
Y255844D01*
X143732Y254844D01*
X139733D01*
X138733Y255844D01*
Y257843D01*
X139733Y258843D01*
X144731Y260842D02*
Y264841D01*
X143732D01*
X139733Y260842D01*
X138733D01*
X325772Y253906D02*
X324772Y252906D01*
X322773D01*
X321773Y253906D01*
Y257905D01*
X322773Y258905D01*
X324772D01*
X325772Y257905D01*
X327771Y253906D02*
X328771Y252906D01*
X330770D01*
X331770Y253906D01*
Y254906D01*
X330770Y255906D01*
X331770Y256905D01*
Y257905D01*
X330770Y258905D01*
X328771D01*
X327771Y257905D01*
Y256905D01*
X328771Y255906D01*
X327771Y254906D01*
Y253906D01*
X328771Y255906D02*
X330770D01*
X347518Y302212D02*
Y297213D01*
X346518Y296214D01*
X344519D01*
X343519Y297213D01*
Y302212D01*
X338521Y296214D02*
Y302212D01*
X341520Y299213D01*
X337521D01*
X105238Y201725D02*
Y206724D01*
X106237Y207723D01*
X108237D01*
X109237Y206724D01*
Y201725D01*
X111236Y202725D02*
X112236Y201725D01*
X114235D01*
X115235Y202725D01*
Y203725D01*
X114235Y204724D01*
X113235D01*
X114235D01*
X115235Y205724D01*
Y206724D01*
X114235Y207723D01*
X112236D01*
X111236Y206724D01*
X304211Y302212D02*
Y297213D01*
X303211Y296214D01*
X301212D01*
X300212Y297213D01*
Y302212D01*
X294214Y296214D02*
X298213D01*
X294214Y300212D01*
Y301212D01*
X295214Y302212D01*
X297213D01*
X298213Y301212D01*
X130859Y227285D02*
X136857D01*
Y230284D01*
X135858Y231284D01*
X133858D01*
X132859Y230284D01*
Y227285D01*
Y229284D02*
X130859Y231284D01*
Y237282D02*
Y233283D01*
X134858Y237282D01*
X135858D01*
X136857Y236282D01*
Y234283D01*
X135858Y233283D01*
X373078Y248093D02*
X367080D01*
Y245094D01*
X368079Y244094D01*
X370079D01*
X371078Y245094D01*
Y248093D01*
Y246094D02*
X373078Y244094D01*
Y242095D02*
Y240096D01*
Y241095D01*
X367080D01*
X368079Y242095D01*
X129983Y274653D02*
Y268654D01*
X126984D01*
X125984Y269654D01*
Y273653D01*
X126984Y274653D01*
X129983D01*
X123985Y268654D02*
X121985D01*
X122985D01*
Y274653D01*
X123985Y273653D01*
X107299D02*
X108299Y274653D01*
X110298D01*
X111298Y273653D01*
Y269654D01*
X110298Y268654D01*
X108299D01*
X107299Y269654D01*
X101301Y274653D02*
X103300Y273653D01*
X105299Y271654D01*
Y269654D01*
X104300Y268654D01*
X102301D01*
X101301Y269654D01*
Y270654D01*
X102301Y271654D01*
X105299D01*
X91551Y273653D02*
X92550Y274653D01*
X94550D01*
X95550Y273653D01*
Y269654D01*
X94550Y268654D01*
X92550D01*
X91551Y269654D01*
X85553Y274653D02*
X89552D01*
Y271654D01*
X87552Y272653D01*
X86553D01*
X85553Y271654D01*
Y269654D01*
X86553Y268654D01*
X88552D01*
X89552Y269654D01*
X355330Y293338D02*
X356330Y294338D01*
X358329D01*
X359329Y293338D01*
Y289339D01*
X358329Y288340D01*
X356330D01*
X355330Y289339D01*
X350332Y288340D02*
Y294338D01*
X353331Y291339D01*
X349332D01*
X371078Y293338D02*
X372078Y294338D01*
X374077D01*
X375077Y293338D01*
Y289339D01*
X374077Y288340D01*
X372078D01*
X371078Y289339D01*
X369079Y293338D02*
X368079Y294338D01*
X366080D01*
X365080Y293338D01*
Y292338D01*
X366080Y291339D01*
X367080D01*
X366080D01*
X365080Y290339D01*
Y289339D01*
X366080Y288340D01*
X368079D01*
X369079Y289339D01*
X372078Y262780D02*
X373078Y261780D01*
Y259781D01*
X372078Y258781D01*
X368079D01*
X367080Y259781D01*
Y261780D01*
X368079Y262780D01*
X367080Y268778D02*
Y264779D01*
X371078Y268778D01*
X372078D01*
X373078Y267778D01*
Y265779D01*
X372078Y264779D01*
M02*
