G04*
G04 #@! TF.GenerationSoftware,Altium Limited,Altium Designer,20.2.6 (244)*
G04*
G04 Layer_Physical_Order=2*
G04 Layer_Color=16711680*
%FSLAX25Y25*%
%MOIN*%
G70*
G04*
G04 #@! TF.SameCoordinates,144DF908-3300-4855-B5FD-CD95A974D408*
G04*
G04*
G04 #@! TF.FilePolarity,Positive*
G04*
G01*
G75*
%ADD20R,0.05709X0.05709*%
%ADD21C,0.05709*%
%ADD28C,0.03150*%
%ADD29R,0.09843X0.04724*%
%ADD30O,0.09843X0.04724*%
%ADD31O,0.04724X0.09843*%
%ADD32R,0.04724X0.09843*%
%ADD33C,0.05906*%
%ADD34R,0.05906X0.05906*%
%ADD35C,0.18673*%
%ADD36R,0.05315X0.05315*%
%ADD37C,0.05315*%
%ADD38C,0.03150*%
%ADD39R,0.05512X0.04724*%
%ADD40R,0.04724X0.05512*%
%ADD41R,0.12598X0.06890*%
%ADD42R,0.03740X0.06890*%
%ADD43R,0.05906X0.09843*%
%ADD44R,0.27559X0.27559*%
%ADD45R,0.07874X0.03543*%
%ADD46R,0.03543X0.07874*%
%ADD47R,0.19685X0.19685*%
%ADD48R,0.05906X0.05906*%
%ADD49C,0.03937*%
D20*
X309564Y154035D02*
D03*
D21*
Y173721D02*
D03*
D28*
X181368Y294094D02*
X190576D01*
X179466Y295997D02*
X181368Y294094D01*
X192421Y277871D02*
Y292249D01*
X190576Y294094D02*
X192421Y292249D01*
X151311Y308858D02*
X191831D01*
X200492Y289704D02*
Y300197D01*
X191831Y308858D02*
X200492Y300197D01*
Y289704D02*
X216679Y273518D01*
X192421Y277871D02*
X206710Y263583D01*
X191678Y178740D02*
X205135Y192197D01*
X139068Y165157D02*
Y176895D01*
X140913Y178740D01*
X191678D01*
X116163Y183661D02*
X190475D01*
X200804Y193991D01*
X114318Y181816D02*
X116163Y183661D01*
X92427Y184966D02*
X95934Y188473D01*
X189162D02*
X196473Y195784D01*
X95934Y188473D02*
X189162D01*
X114318Y165157D02*
Y181816D01*
X214567Y268406D02*
X222438D01*
X222458Y268425D01*
X265994Y133219D02*
X303254Y95959D01*
X257093Y142120D02*
X265994Y133219D01*
X243012Y99508D02*
Y110236D01*
X265994Y133219D01*
X212067Y99544D02*
X212103Y99508D01*
X224016D01*
X235531Y50331D02*
Y104472D01*
X212067Y109386D02*
X214199D01*
X215413Y108173D01*
Y108162D02*
Y108173D01*
X233686Y106317D02*
X235531Y104472D01*
X215413Y108162D02*
X217258Y106317D01*
X233686D01*
X212067Y50331D02*
X236874D01*
X89567Y145472D02*
X114318D01*
X166378D01*
X262460Y79859D02*
Y89701D01*
X96063Y262598D02*
X103051D01*
X104151D01*
X139068Y155315D02*
X163819D01*
X114318D02*
X139068D01*
X212067Y109386D02*
Y114705D01*
X185925Y140847D02*
X212067Y114705D01*
X319094Y154481D02*
Y178051D01*
X310010Y154481D02*
X319094D01*
Y118895D02*
Y154481D01*
Y118895D02*
X332188Y105801D01*
X340852D01*
X303757Y148228D02*
X310010Y154481D01*
X316339Y180807D02*
X319094Y178051D01*
X286614Y180807D02*
X316339D01*
X278422Y188999D02*
Y204488D01*
Y188999D02*
X286614Y180807D01*
X303254Y95959D02*
X332188D01*
X256791Y147835D02*
X257093Y147533D01*
Y142120D02*
Y147533D01*
X262460Y109386D02*
X277129D01*
X277165Y109350D01*
X166378Y145472D02*
X167165Y144685D01*
Y142126D02*
Y144685D01*
Y142126D02*
X188186Y121106D01*
Y120866D02*
Y121106D01*
Y120866D02*
X209507Y99544D01*
X212067D01*
X145669Y110039D02*
X157283D01*
X117627Y262598D02*
X124016D01*
X111237D02*
X117627D01*
X104151Y262205D02*
Y262598D01*
X102907Y228150D02*
X103051Y228294D01*
Y261105D01*
X104151Y262205D01*
X89567Y155315D02*
X114318D01*
X55118D02*
X89567D01*
X124016Y228150D02*
X124803Y228937D01*
X128347D02*
X133669Y234260D01*
X124803Y228937D02*
X128347D01*
X133875Y234055D02*
Y243898D01*
X102907Y228150D02*
X124016D01*
X85236Y274213D02*
Y275787D01*
X9646Y49016D02*
Y262402D01*
X85236Y266732D02*
Y274213D01*
X15650Y268406D02*
Y268406D01*
X9646Y262402D02*
X15650Y268406D01*
Y268406D02*
X21037Y273793D01*
X17520Y41142D02*
X95276D01*
X9646Y49016D02*
X17520Y41142D01*
X21037Y273793D02*
X68209D01*
X85039Y280906D02*
X86614Y282480D01*
X85039Y275590D02*
Y280906D01*
X86614Y282480D02*
Y299016D01*
X72301Y274213D02*
X83661D01*
X85236Y275787D01*
X68209Y273793D02*
X68510Y274094D01*
X72183D02*
X72301Y274213D01*
X68510Y274094D02*
X72183D01*
X85236Y266732D02*
X88976Y262992D01*
Y254574D02*
Y262992D01*
X47244Y243898D02*
X68209Y264862D01*
X55118Y155315D02*
Y203346D01*
Y52829D02*
Y155315D01*
X54724Y203740D02*
X74016D01*
X35433D02*
X54724D01*
X55118Y203346D01*
X310124Y286161D02*
X312402Y283883D01*
X303484Y286161D02*
X310124D01*
X312402Y276401D02*
Y283883D01*
X159466Y286161D02*
Y298130D01*
Y274192D02*
Y286161D01*
X145669Y100197D02*
X157972D01*
X289387Y196769D02*
Y208425D01*
X289370Y196752D02*
X289387Y196769D01*
X289584Y218228D02*
X297165D01*
X297342Y218406D01*
X289387Y218425D02*
X289584Y218228D01*
X262460Y40489D02*
X277129D01*
X262460Y99544D02*
X277129D01*
X289387Y213425D02*
X296457D01*
X289584Y223228D02*
X295549D01*
X296003Y222774D01*
X289505Y228543D02*
X296358D01*
X289387Y228425D02*
X289505Y228543D01*
X266634Y147835D02*
X267028D01*
X267421Y148228D02*
X303757D01*
X267028Y147835D02*
X267421Y148228D01*
X273422Y182680D02*
Y204488D01*
X282382Y173721D02*
X309564D01*
X273422Y182680D02*
X282382Y173721D01*
X171758Y155014D02*
X185925Y140847D01*
X164120Y155014D02*
X171758D01*
X163819Y155315D02*
X164120Y155014D01*
X233422Y188836D02*
Y204488D01*
X211434Y158645D02*
Y166847D01*
X233422Y188836D01*
X248141Y179735D02*
Y200725D01*
X247441Y151999D02*
Y179035D01*
X248141Y179735D01*
X227362Y150101D02*
Y172933D01*
X237950Y183521D02*
Y200534D01*
X227362Y172933D02*
X237950Y183521D01*
X237834Y152235D02*
Y177007D01*
X242950Y182123D02*
Y200534D01*
X237834Y177007D02*
X242950Y182123D01*
X248141Y200725D02*
X248225Y200810D01*
X247250Y151809D02*
X247441Y151999D01*
X247250Y148136D02*
Y151809D01*
X246949Y147835D02*
X247250Y148136D01*
X248225Y200810D02*
Y204291D01*
X248422Y204488D01*
X237408Y149144D02*
Y151809D01*
X242950Y200534D02*
X243225Y200810D01*
X237408Y151809D02*
X237834Y152235D01*
X243225Y200810D02*
Y204291D01*
X243422Y204488D01*
X238225Y204291D02*
X238422Y204488D01*
X238225Y200810D02*
Y204291D01*
X237950Y200534D02*
X238225Y200810D01*
X211434Y158645D02*
X211516Y158563D01*
X289387Y233425D02*
X296516D01*
X296555Y233465D01*
X289387Y223425D02*
X289584Y223228D01*
X145669Y41142D02*
X156693D01*
X312992Y257677D02*
X317913Y252756D01*
X312992Y257677D02*
Y262795D01*
X330413Y252756D02*
Y265650D01*
X302823Y243228D02*
X307874Y238177D01*
Y230881D02*
Y238177D01*
X303947Y248228D02*
X312205Y239971D01*
X301698Y238228D02*
X303543Y236383D01*
X289584Y238228D02*
X301698D01*
X312205Y232675D02*
X315549Y229331D01*
X307874Y230881D02*
X313755Y225000D01*
X289584Y243228D02*
X302823D01*
X312205Y232675D02*
Y239971D01*
X303543Y229087D02*
Y236383D01*
X289584Y248228D02*
X303947D01*
X316378Y244488D02*
X351969D01*
X315549Y229331D02*
X315694D01*
X313755Y225000D02*
X313900D01*
X306102Y254764D02*
Y261580D01*
X313900Y225000D02*
X373228Y165672D01*
X306102Y254764D02*
X316378Y244488D01*
X315694Y229331D02*
X377559Y167466D01*
X289387Y243425D02*
X289584Y243228D01*
X96260Y298819D02*
X96457Y299016D01*
X159243Y273970D02*
X159466Y274192D01*
X169466Y298130D02*
X169767Y297829D01*
X187025Y226181D02*
X187213Y226369D01*
X184466Y255709D02*
X187025D01*
X183678Y256496D02*
X184466Y255709D01*
X289387Y248425D02*
X289584Y248228D01*
X323228Y265551D02*
Y265945D01*
X321457Y267717D02*
X323228Y265945D01*
X23622Y218898D02*
Y222244D01*
X35433Y203740D02*
Y207087D01*
X47244Y222244D02*
X47244Y222244D01*
X88976Y254574D02*
X91339Y252212D01*
Y250243D02*
Y252212D01*
X96063Y262598D02*
X96063Y262598D01*
X96063Y262598D02*
X96260Y262795D01*
X111237Y254000D02*
Y262598D01*
X169767Y292651D02*
Y297829D01*
X184039Y245866D02*
X187025D01*
X210138Y191075D02*
Y205111D01*
X289387Y238425D02*
X289584Y238228D01*
X304257Y263425D02*
X306102Y261580D01*
X311961Y220669D02*
X312106D01*
X320748Y268425D02*
X321457Y267717D01*
Y276401D02*
Y277976D01*
X330315Y276204D02*
X330512Y276401D01*
X353150Y255906D02*
Y262188D01*
X360236D02*
X360326Y262098D01*
X358965Y244398D02*
X359055Y244488D01*
X366929Y278543D02*
X370276D01*
X96260Y262795D02*
Y298819D01*
X183678Y256496D02*
Y272347D01*
X200804Y193991D02*
Y208027D01*
X321457Y267717D02*
Y276401D01*
X330315Y265551D02*
Y276204D01*
X354331Y263763D02*
Y277756D01*
X360236Y237992D02*
Y262188D01*
X47244Y222244D02*
Y243898D01*
X125000Y263583D02*
X139764D01*
X149623Y263970D02*
X150010Y263583D01*
X149466Y298130D02*
Y298228D01*
X148678Y299016D02*
X149466Y298228D01*
X159466Y274192D02*
X181833D01*
X179466Y295997D02*
Y298130D01*
X189885Y207224D02*
Y209356D01*
X187025Y216339D02*
X189584D01*
X187213Y226369D02*
X193118D01*
X194800Y241240D02*
X198442D01*
X222261Y223228D02*
X222458Y223425D01*
X222261Y248622D02*
X222458Y248425D01*
X222123Y258760D02*
X222458Y258425D01*
X222300Y263583D02*
X222458Y263425D01*
X222365Y273518D02*
X222458Y273425D01*
X289387Y263425D02*
X304257D01*
X289387Y273425D02*
X302165D01*
X91700Y165157D02*
X92427Y165885D01*
X100394Y225637D02*
X102907Y228150D01*
X109449Y252212D02*
X111237Y254000D01*
X109449Y250243D02*
Y252212D01*
X124016Y262598D02*
X125000Y263583D01*
X133875Y243898D02*
Y256496D01*
Y243898D02*
X133947Y243970D01*
X133875Y263583D02*
Y269488D01*
X133947Y243970D02*
X149623D01*
X163819Y172244D02*
X165787Y174213D01*
X163819Y165157D02*
Y172244D01*
X187025Y206496D02*
X189157D01*
X189885Y207224D01*
X205135Y192197D02*
Y206233D01*
X189584Y216339D02*
X206670Y233425D01*
X193118Y226369D02*
X205174Y238425D01*
X187025Y236024D02*
X189584D01*
X198344Y251946D02*
X201668Y248622D01*
X198344Y251946D02*
Y264075D01*
X222143Y253740D02*
X222458Y253425D01*
X317913Y252756D02*
X330413D01*
X321457Y277976D02*
X328323Y284842D01*
X357283Y235039D02*
X360236Y237992D01*
X350000Y252756D02*
X353150Y255906D01*
X354331Y284842D02*
X366142D01*
X370276Y278543D02*
X373031Y281299D01*
X369957Y301204D02*
X373031Y298130D01*
Y281299D02*
Y298130D01*
X366142Y277756D02*
X366929Y278543D01*
X354331Y277756D02*
X366142D01*
X74803Y139567D02*
X80709Y145472D01*
X74016Y203740D02*
X84183Y213907D01*
X92427Y165885D02*
Y184966D01*
X124016Y235236D02*
Y248819D01*
X149466Y298228D02*
Y307013D01*
X133875Y269488D02*
X138357Y273970D01*
X149466Y307013D02*
X151311Y308858D01*
X196473Y209820D02*
X209881Y223228D01*
X200804Y208027D02*
X211203Y218425D01*
X205135Y206233D02*
X212327Y213425D01*
X210138Y205111D02*
X213452Y208425D01*
X193275Y174213D02*
X210138Y191075D01*
X196473Y195784D02*
Y209820D01*
X189584Y236024D02*
X194800Y241240D01*
X259859Y243898D02*
Y273425D01*
X189885Y209356D02*
X208954Y228425D01*
X278422Y204488D02*
Y225335D01*
X259859Y243898D02*
X278422Y225335D01*
X80709Y145472D02*
X89567D01*
X213452Y208425D02*
X222458D01*
X211203Y218425D02*
X222458D01*
X209881Y223228D02*
X222261D01*
X206670Y233425D02*
X222458D01*
X201668Y248622D02*
X222261D01*
X205332Y258760D02*
X222123D01*
X150010Y263583D02*
X165371D01*
X206710D02*
X222300D01*
X181833Y274192D02*
X183678Y272347D01*
X216679Y273518D02*
X222365D01*
X138357Y273970D02*
X159243D01*
X343504Y235039D02*
X357283D01*
X259859Y273425D02*
X289387D01*
X89567Y165157D02*
X91700D01*
X88664Y213907D02*
X100394Y225637D01*
X84183Y213907D02*
X88664D01*
X165787Y174213D02*
X193275D01*
X205174Y238425D02*
X222458D01*
X208954Y228425D02*
X222458D01*
X212327Y213425D02*
X222458D01*
X149623Y253970D02*
X165141D01*
X182143Y243970D02*
X184039Y245866D01*
X202674Y253740D02*
X222143D01*
X149623Y243970D02*
X182143D01*
X303543Y229087D02*
X311961Y220669D01*
X343504Y252756D02*
X350000D01*
X291732Y268425D02*
X320748D01*
X330413Y252756D02*
X343504D01*
X328323Y284842D02*
X354331D01*
X23622Y218898D02*
X35433Y207087D01*
X169767Y292651D02*
X198344Y264075D01*
X222458Y273425D02*
X259859D01*
X96457Y299016D02*
X148678D01*
X321457Y301204D02*
X369957D01*
X312106Y220669D02*
X368307Y164469D01*
X373228Y102753D02*
Y165672D01*
X368307Y48619D02*
Y164469D01*
X377559Y110824D02*
Y167466D01*
X368307Y48619D02*
X380023Y36904D01*
X377559Y110824D02*
X379721Y108661D01*
X373228Y102753D02*
X379508Y96473D01*
X380449Y105801D02*
X382582D01*
X379721Y106529D02*
Y108661D01*
Y106529D02*
X380449Y105801D01*
X348425Y46746D02*
Y98228D01*
X382582Y76274D02*
Y86116D01*
X340852Y105801D02*
X348425Y98228D01*
X332188Y46746D02*
X348425D01*
X380023Y36904D02*
X382582D01*
X382067Y96473D02*
X382582Y95959D01*
X379508Y96473D02*
X382067D01*
X145669Y80512D02*
Y90354D01*
X74803Y106102D02*
X80709Y100197D01*
X95276D01*
X74803Y106102D02*
Y139567D01*
X95276Y50984D02*
X112694D01*
X56963D02*
X95276D01*
X55118Y52829D02*
X56963Y50984D01*
X112694D02*
X120079D01*
X105121Y110039D02*
X112694Y102467D01*
X96457Y110039D02*
X105121D01*
X112694Y50984D02*
Y102467D01*
X348425Y46746D02*
X356991D01*
X308545Y86589D02*
X308781Y86352D01*
X331952D01*
X332188Y86116D01*
X308545Y76588D02*
X308702Y76431D01*
X332031D01*
X332188Y76274D01*
X308545Y66588D02*
X308623Y66510D01*
X332109D01*
X332188Y66431D01*
X308545Y56589D02*
X332188D01*
X188423Y90174D02*
X188659Y89938D01*
X211830D01*
X212067Y89701D01*
X188423Y80174D02*
X188581Y80016D01*
X211909D01*
X212067Y79859D01*
X188423Y70174D02*
X188502Y70095D01*
X211988D01*
X212067Y70016D01*
X348425Y7554D02*
Y13583D01*
X346580Y5709D02*
X348425Y7554D01*
X236221Y5709D02*
X346580D01*
X118110D02*
X236221D01*
Y19488D01*
X332188Y29992D02*
X348512Y13669D01*
X111002Y12817D02*
Y18504D01*
Y12817D02*
X118110Y5709D01*
X255906Y19488D02*
Y31299D01*
X236874Y50331D02*
X255906Y31299D01*
X236221Y19488D02*
Y29331D01*
X212067Y40489D02*
X225062D01*
X236221Y29331D01*
X332188Y29992D02*
Y36904D01*
X356991Y46746D02*
X367600Y36138D01*
Y13583D02*
Y36138D01*
X130687Y18504D02*
Y40376D01*
X120079Y50984D02*
X130687Y40376D01*
X95276Y34231D02*
Y41142D01*
Y34231D02*
X111002Y18504D01*
X71632Y60827D02*
X95276D01*
X71632Y70827D02*
X71711Y70748D01*
X95197D01*
X95276Y70669D01*
X71632Y80827D02*
X71789Y80669D01*
X95118D01*
X95276Y80512D01*
X71632Y90827D02*
X71868Y90591D01*
X95039D01*
X95276Y90354D01*
D29*
X262460Y40489D02*
D03*
X68209Y263950D02*
D03*
X114318Y145472D02*
D03*
X89567D02*
D03*
X163819D02*
D03*
X139068Y145472D02*
D03*
X187025Y255709D02*
D03*
X149623Y243970D02*
D03*
X382582Y36904D02*
D03*
X188423Y60174D02*
D03*
X308545Y56589D02*
D03*
X145669Y41142D02*
D03*
X71632Y60827D02*
D03*
D30*
X262460Y50331D02*
D03*
Y60174D02*
D03*
Y70016D02*
D03*
Y79859D02*
D03*
Y89701D02*
D03*
Y99544D02*
D03*
Y109386D02*
D03*
X212067Y40489D02*
D03*
Y50331D02*
D03*
Y60174D02*
D03*
Y70016D02*
D03*
Y79859D02*
D03*
Y89701D02*
D03*
Y99544D02*
D03*
Y109386D02*
D03*
X68209Y273793D02*
D03*
X114318Y155315D02*
D03*
Y165157D02*
D03*
X89567Y155315D02*
D03*
Y165157D02*
D03*
X163819Y155315D02*
D03*
Y165157D02*
D03*
X139068Y155315D02*
D03*
Y165157D02*
D03*
X187025Y206496D02*
D03*
Y216339D02*
D03*
Y226181D02*
D03*
Y236024D02*
D03*
Y245866D02*
D03*
X149623Y273970D02*
D03*
Y263970D02*
D03*
Y253970D02*
D03*
X382582Y46746D02*
D03*
Y56589D02*
D03*
Y66431D02*
D03*
Y76274D02*
D03*
Y86116D02*
D03*
Y95959D02*
D03*
Y105801D02*
D03*
X332188Y36904D02*
D03*
Y46746D02*
D03*
Y56589D02*
D03*
Y66431D02*
D03*
Y76274D02*
D03*
Y86116D02*
D03*
Y95959D02*
D03*
Y105801D02*
D03*
X188423Y90174D02*
D03*
Y80174D02*
D03*
Y70174D02*
D03*
X308545Y86589D02*
D03*
Y76588D02*
D03*
Y66588D02*
D03*
X145669Y50984D02*
D03*
Y60827D02*
D03*
Y70669D02*
D03*
Y80512D02*
D03*
Y90354D02*
D03*
Y100197D02*
D03*
Y110039D02*
D03*
X95276Y41142D02*
D03*
Y50984D02*
D03*
Y60827D02*
D03*
Y70669D02*
D03*
Y80512D02*
D03*
Y90354D02*
D03*
Y100197D02*
D03*
Y110039D02*
D03*
X71632Y70827D02*
D03*
Y80827D02*
D03*
Y90827D02*
D03*
D31*
X227264Y147835D02*
D03*
X237106D02*
D03*
X246949D02*
D03*
X256791D02*
D03*
X96457Y299016D02*
D03*
X159466Y298130D02*
D03*
X169466D02*
D03*
X179466D02*
D03*
D32*
X266634Y147835D02*
D03*
X86614Y299016D02*
D03*
X149466Y298130D02*
D03*
D33*
X211516Y158563D02*
D03*
Y140847D02*
D03*
X185925D02*
D03*
X343504Y252756D02*
D03*
Y235039D02*
D03*
X317913D02*
D03*
D34*
X185925Y158563D02*
D03*
X317913Y252756D02*
D03*
D35*
X35433Y203740D02*
D03*
X23622Y222244D02*
D03*
X47244D02*
D03*
X385827Y295079D02*
D03*
X17717Y299016D02*
D03*
X220472Y19488D02*
D03*
D36*
X348425Y13583D02*
D03*
X236221Y19488D02*
D03*
X111002Y18504D02*
D03*
D37*
X368110Y13583D02*
D03*
X255906Y19488D02*
D03*
X130687Y18504D02*
D03*
D38*
X214567Y268406D02*
D03*
X243012Y99508D02*
D03*
X224016D02*
D03*
X277165Y109350D02*
D03*
X157283Y110039D02*
D03*
X101083Y145374D02*
D03*
X117627Y262598D02*
D03*
X303484Y286161D02*
D03*
X159466D02*
D03*
X157972Y100197D02*
D03*
X289370Y196752D02*
D03*
X297342Y218406D02*
D03*
X277165Y40453D02*
D03*
Y99508D02*
D03*
X296457Y213425D02*
D03*
X296003Y222774D02*
D03*
X296358Y228543D02*
D03*
X296555Y233465D02*
D03*
X156693Y41142D02*
D03*
X312992Y262795D02*
D03*
X302165Y273425D02*
D03*
X202674Y253740D02*
D03*
X165371Y263583D02*
D03*
X198442Y241240D02*
D03*
X205332Y258760D02*
D03*
X165141Y253970D02*
D03*
D39*
X133875Y256496D02*
D03*
Y263583D02*
D03*
X124016Y235236D02*
D03*
Y228150D02*
D03*
X354331Y277756D02*
D03*
Y284842D02*
D03*
X366142Y277756D02*
D03*
Y284842D02*
D03*
D40*
X330315Y265551D02*
D03*
X323228D02*
D03*
X351969Y244488D02*
D03*
X359055D02*
D03*
X104151Y262598D02*
D03*
X111237D02*
D03*
X96063Y262598D02*
D03*
X88976D02*
D03*
X353150Y262188D02*
D03*
X360236D02*
D03*
D41*
X321457Y301204D02*
D03*
D42*
X312402Y276401D02*
D03*
X321457D02*
D03*
X330512D02*
D03*
D43*
X91339Y250243D02*
D03*
X109449D02*
D03*
D44*
X100394Y225637D02*
D03*
D45*
X289387Y273425D02*
D03*
Y268425D02*
D03*
Y263425D02*
D03*
Y258425D02*
D03*
Y253425D02*
D03*
Y248425D02*
D03*
Y243425D02*
D03*
Y238425D02*
D03*
Y233425D02*
D03*
Y228425D02*
D03*
Y223425D02*
D03*
Y218425D02*
D03*
Y213425D02*
D03*
Y208425D02*
D03*
X222458D02*
D03*
Y213425D02*
D03*
Y218425D02*
D03*
Y223425D02*
D03*
Y228425D02*
D03*
Y233425D02*
D03*
Y238425D02*
D03*
Y243425D02*
D03*
Y248425D02*
D03*
Y253425D02*
D03*
Y258425D02*
D03*
Y263425D02*
D03*
Y268425D02*
D03*
Y273425D02*
D03*
D46*
X278422Y204488D02*
D03*
X273422D02*
D03*
X268422D02*
D03*
X263422D02*
D03*
X258422D02*
D03*
X253422D02*
D03*
X248422D02*
D03*
X243422D02*
D03*
X238422D02*
D03*
X233422D02*
D03*
D47*
X259859Y243898D02*
D03*
D48*
X124016Y262598D02*
D03*
Y248819D02*
D03*
D49*
X188423Y60174D02*
X212067D01*
M02*
